<svg width="32" height="32" viewBox="0 0 32 32" fill="none" xmlns="http://www.w3.org/2000/svg">
<g clip-path="url(#clip0_12_4)">
<path fill-rule="evenodd" clip-rule="evenodd" d="M28.4373 30.1177H5.84903V1.88233H20.9079V9.41175H28.4373V30.1177ZM22.7902 2.27198L28.0476 7.52943H22.7902V2.272V2.27198ZM29.4932 6.31343L24.0062 0.826333C23.4716 0.293667 22.762 0 22.009 0H3.96667V32H30.3196V8.31058C30.3196 7.55765 30.026 6.848 29.4933 6.31342L29.4932 6.31343ZM9.61373 20.7059H22.7902V18.8236H9.61373V20.7059ZM9.61373 13.1765H24.6726V11.2941H9.61373V13.1765ZM9.61373 24.4706H17.1431V22.5882H9.61373V24.4706ZM9.61373 16.9412H20.9079V15.0588H9.61373V16.9412ZM9.61373 9.41177H17.1431V7.52942H9.61373V9.41177Z" fill="white"/>
</g>
<defs>
<clipPath id="clip0_12_4">
<rect width="32" height="32" fill="white"/>
</clipPath>
</defs>
</svg>
