<svg width="32" height="32" viewBox="0 0 32 32" fill="none" xmlns="http://www.w3.org/2000/svg">
<path d="M27 29H4C2.895 29 2 28.104 2 27V15C2 15 7.221 17.685 12 18.784V20C12 20.553 12.447 21 13 21H18C18.552 21 19 20.553 19 20V18.784C23.778 17.685 29 15 29 15V27C29 28.104 28.104 29 27 29ZM17 17C17.552 17 18 17.447 18 18V19C18 19.553 17.552 20 17 20H14C13.447 20 13 19.553 13 19V18C13 17.447 13.447 17 14 17H17ZM19 17C19 16.447 18.552 16 18 16H13C12.447 16 12 16.447 12 17V17.896C7.221 16.764 2 14 2 14V10C2 8.896 2.895 8 4 8H10V6C10 4.896 10.896 4 12 4H19C20.104 4 21 4.896 21 6V8H27C28.104 8 29 8.896 29 10V14C29 14 23.778 16.764 19 17.896V17ZM19 7C19 6.447 18.552 6 18 6H13C12.447 6 12 6.447 12 7C12 7.552 12 8 12 8H19C19 8 19 7.552 19 7Z" fill="white"/>
</svg>
